<svg id="Layer_1" data-name="Layer 1" xmlns="http://www.w3.org/2000/svg" viewBox="0 0 48 48"><defs><style>.cls-1{fill:#dad7e5;}.cls-2{fill:#374f68;}.cls-3{fill:#cc734c;}.cls-4{fill:#9fdbf3;}.cls-5{fill:#edebf2;}.cls-6{fill:#df8761;}.cls-7{fill:#b2e5fb;}.cls-8{fill:#f29b75;}.cls-9{fill:#425b72;}</style></defs><title>house, home, real estate, property, building, architecture</title><rect class="cls-1" x="2.46" y="28.9" width="8.81" height="16.65" transform="translate(13.73 74.44) rotate(180)"/><rect class="cls-2" x="1.48" y="44.56" width="9.79" height="1.96" transform="translate(12.75 91.08) rotate(180)"/><polygon class="cls-3" points="0.5 30.85 11.27 30.85 11.27 25.96 5.4 25.96 0.5 30.85"/><rect class="cls-4" x="4.42" y="34.77" width="4.9" height="3.92" transform="translate(13.73 73.46) rotate(180)"/><rect class="cls-1" x="36.73" y="28.9" width="8.81" height="16.65"/><rect class="cls-2" x="36.73" y="44.56" width="9.79" height="1.96"/><polygon class="cls-3" points="47.5 30.85 36.73 30.85 36.73 25.96 42.6 25.96 47.5 30.85"/><polygon class="cls-5" points="36.73 24 11.27 24 11.27 13.23 24 2.46 36.73 13.23 36.73 24"/><polygon class="cls-6" points="38.69 13.23 38.69 16.17 24 3.44 9.31 16.17 9.31 13.23 24 0.5 38.69 13.23"/><rect class="cls-7" x="15.19" y="16.17" width="7.83" height="7.83"/><rect class="cls-7" x="24.98" y="16.17" width="7.83" height="7.83"/><polygon class="cls-6" points="41.63 28.9 6.38 28.9 11.27 24 36.73 24 41.63 28.9"/><rect class="cls-5" x="11.27" y="28.9" width="25.46" height="16.65"/><rect class="cls-8" x="15.19" y="34.77" width="6.85" height="10.77"/><rect class="cls-7" x="24" y="34.77" width="8.81" height="6.85"/><rect class="cls-9" x="9.31" y="45.54" width="29.37" height="1.96"/><rect class="cls-4" x="38.69" y="34.77" width="4.9" height="3.92"/></svg>