<?xml version="1.0"?><svg xmlns="http://www.w3.org/2000/svg" id="Music" viewBox="0 0 64 64"><circle cx="26" cy="38" r="25" style="fill:#8dc9ff; stroke-width:0px;"/><circle cx="26" cy="38" r="10" style="fill:#66afff; stroke-width:0px;"/><circle cx="26" cy="38" r="3" style="fill:#509cef; stroke-width:0px;"/><path d="m13.65771484,10.55273438c-2.78564453-.9296875-4.65771484-3.52636719-4.65771484-6.46289062,0-1.70410156,1.38623047-3.08984375,3.09033203-3.08984375.83691406,0,1.6171875.32421875,2.19677734.91308594l.71289062.72460938.71289062-.72460938c.57958984-.58886719,1.35986328-.91308594,2.19677734-.91308594,1.70410156,0,3.09033203,1.38574219,3.09033203,3.08984375,0,2.93652344-1.87158203,5.53320312-4.65771484,6.46289062l-1.34228516.44628906-1.34228516-.44628906Z" style="fill:#f95d77; stroke-width:0px;"/><path d="m55.65771484,62.55273438c-2.78564453-.9296875-4.65771484-3.52636719-4.65771484-6.46289062,0-1.70410156,1.38623047-3.08984375,3.09033203-3.08984375.83691406,0,1.6171875.32421875,2.19677734.91308594l.71289062.72460938.71289062-.72460938c.57958984-.58886719,1.35986328-.91308594,2.19677734-.91308594,1.70410156,0,3.09033203,1.38574219,3.09033203,3.08984375,0,2.93652344-1.87158203,5.53320312-4.65771484,6.46289062l-1.34228516.44628906-1.34228516-.44628906Z" style="fill:#f95d77; stroke-width:0px;"/><path d="m40.98925781,30.02148438c-3.30224609,0-5.98925781-2.24316406-5.98925781-5s2.68701172-5,5.98925781-5c.29541016,0,.59033203.01855469.88378906.05664062l1.12695312.14453125V5L63,1v21c0,2.76855469-2.69628906,5.02148438-6.01074219,5.02148438-3.30224609,0-5.98925781-2.24316406-5.98925781-5s2.68701172-5,5.98925781-5c.29541016,0,.59033203.01855469.88378906.05664062l1.12695312.14453125v-7.42285156l-12,2.40039062v12.79980469c0,2.76855469-2.69628906,5.02148438-6.01074219,5.02148438Z" style="fill:#ffcd5f; stroke-width:0px;"/><path d="m50.03369141,28.07714844c-.21191406-.51074219-.79541016-.75195312-1.30712891-.54101562-.51025391.21191406-.75195312.796875-.54052734,1.30664062,1.20361328,2.90039062,1.81396484,5.98144531,1.81396484,9.15722656,0,13.23339844-10.76660156,24-24,24S2,51.23339844,2,38,12.76660156,14,26,14c4.71191406,0,9.26904297,1.36425781,13.17919922,3.9453125.46142578.30273438,1.08154297.17675781,1.38525391-.28417969.30419922-.4609375.17724609-1.08105469-.28369141-1.38574219-4.23779297-2.796875-9.17578125-4.27539062-14.28076172-4.27539062C11.66357422,12,0,23.66308594,0,38s11.66357422,26,26,26,26-11.66308594,26-26c0-3.44042969-.66162109-6.77929688-1.96630859-9.92285156Z" style="fill:#30333d; stroke-width:0px;"/><path d="m25,57c0,.55273438.44775391,1,1,1,11.02783203,0,20-8.97167969,20-20,0-.55273438-.44775391-1-1-1s-1,.44726562-1,1c0,9.92480469-8.07470703,18-18,18-.55224609,0-1,.44726562-1,1Z" style="fill:#30333d; stroke-width:0px;"/><path d="m7.20800781,35.00585938c-.5546875-.06347656-1.04150391.34082031-1.09863281.88964844-.07275391.69335938-.109375,1.40136719-.109375,2.10449219,0,.55273438.44775391,1,1,1s1-.44726562,1-1c0-.63378906.03320312-1.27148438.09863281-1.89550781.05761719-.54980469-.34130859-1.04199219-.890625-1.09863281Z" style="fill:#30333d; stroke-width:0px;"/><path d="m8.76074219,31c.37695312,0,.73779297-.21386719.90722656-.578125,2.94335938-6.33105469,9.35400391-10.421875,16.33203125-10.421875.55224609,0,1-.44726562,1-1s-.44775391-1-1-1c-7.75292969,0-14.87548828,4.54492188-18.14550781,11.578125-.23291016.50097656-.015625,1.09570312.48535156,1.32910156.13623047.06347656.27978516.09277344.42089844.09277344Z" style="fill:#30333d; stroke-width:0px;"/><path d="m26,27c-6.06542969,0-11,4.93457031-11,11s4.93457031,11,11,11,11-4.93457031,11-11-4.93457031-11-11-11Zm0,20c-4.96240234,0-9-4.03710938-9-9s4.03759766-9,9-9,9,4.03710938,9,9-4.03759766,9-9,9Z" style="fill:#30333d; stroke-width:0px;"/><path d="m26,34c-2.20556641,0-4,1.79394531-4,4s1.79443359,4,4,4,4-1.79394531,4-4-1.79443359-4-4-4Zm0,6c-1.10302734,0-2-.89746094-2-2s.89697266-2,2-2,2,.89746094,2,2-.89697266,2-2,2Z" style="fill:#30333d; stroke-width:0px;"/><path d="m13.34179688,11.50097656l1.34228516.44726562c.10253906.03417969.20898438.05175781.31591797.05175781s.21337891-.01757812.31591797-.05175781l1.34277344-.44726562c3.19482422-1.06542969,5.34130859-4.04394531,5.34130859-7.41113281,0-2.25488281-1.83496094-4.08984375-4.09033203-4.08984375-1.11816406,0-2.15527344.4453125-2.90966797,1.21191406-.75439453-.76660156-1.79150391-1.21191406-2.90966797-1.21191406-2.25537109,0-4.09033203,1.83496094-4.09033203,4.08984375,0,3.3671875,2.14648438,6.34570312,5.34179688,7.41113281Zm-1.25146484-9.50097656c.796875,0,1.51318359.44238281,1.86914062,1.15527344l.14599609.29199219c.33886719.67773438,1.45019531.67773438,1.7890625,0l.14599609-.29199219c.35595703-.71289062,1.07226562-1.15527344,1.86914062-1.15527344,1.15282837,0,2.09033203.9375,2.09033203,2.08984375,0,2.50488281-1.59716797,4.72167969-3.97363281,5.51464844l-1.02636719.34179688-1.02587891-.34179688c-2.37695312-.79296875-3.97412109-3.00976562-3.97412109-5.51464844,0-1.15234375.93749654-2.08984375,2.09033203-2.08984375Z" style="fill:#30333d; stroke-width:0px;"/><path d="m59.90966797,52c-1.11816406,0-2.15527344.4453125-2.90966797,1.21191406-.75439453-.76660156-1.79150391-1.21191406-2.90966797-1.21191406-2.25537109,0-4.09033203,1.83496094-4.09033203,4.08984375,0,3.3671875,2.14648438,6.34570312,5.34179688,7.41113281l1.34228516.44726562c.10253906.03417969.20898438.05175781.31591797.05175781s.21337891-.01757812.31591797-.05175781l1.34277344-.44726562c3.19482422-1.06542969,5.34130859-4.04394531,5.34130859-7.41113281,0-2.25488281-1.83496094-4.08984375-4.09033203-4.08984375Zm-1.88330078,9.60449219l-1.02636719.34179688-1.02587891-.34179688c-2.37695312-.79296875-3.97412109-3.00976562-3.97412109-5.51464844,0-1.15234375.93749548-2.08984375,2.09033203-2.08984375.796875,0,1.51318359.44238281,1.86914062,1.15527344l.14599609.29199219c.33886719.67773438,1.45019531.67773438,1.7890625,0l.14599609-.29199219c.35595703-.71289062,1.07226562-1.15527344,1.86914062-1.15527344,1.15282731,0,2.09033203.9375,2.09033203,2.08984375,0,2.50488281-1.59716797,4.72167969-3.97363281,5.51464844Z" style="fill:#30333d; stroke-width:0px;"/><path d="m63.63378906.2265625c-.23193359-.19042969-.53564453-.265625-.83007812-.20703125l-20,4c-.46728516.09375-.80371094.50390625-.80371094.98046875v14.0859375c-.33544922-.04296875-.67285156-.06445312-1.01074219-.06445312-3.85400391,0-6.98925781,2.69140625-6.98925781,6s3.13525391,6,6.98925781,6c3.86572266,0,7.01074219-2.70117188,7.01074219-6.02148438v-11.98046875l10-2v5.06640625c-.33544922-.04296875-.67285156-.06445312-1.01074219-.06445312-3.85400391,0-6.98925781,2.69140625-6.98925781,6s3.13525391,6,6.98925781,6c3.86572266,0,7.01074219-2.70117188,7.01074219-6.02148438V1c0-.29980469-.13427734-.58300781-.36621094-.7734375Zm-1.63378906,21.7734375c0,2.21777344-2.24804688,4.02148438-5.01074219,4.02148438-2.75097656,0-4.98925781-1.79394531-4.98925781-4s2.23828125-4,4.98925781-4c.58056641,0,1.16113281.08496094,1.72509766.25292969.30224609.09277344.63037109.03222656.88330078-.15625.25341797-.18847656.40234375-.48632812.40234375-.80175781v-7.51660156c0-.29980469-.13427734-.58300781-.36621094-.7734375-.23144531-.19042969-.53662109-.26464844-.83007812-.20703125l-12,2.40039062c-.46728516.09375-.80371094.50390625-.80371094.98046875v12.79980469c0,2.21777344-2.24804688,4.02148438-5.01074219,4.02148438-2.75097656,0-4.98925781-1.79394531-4.98925781-4s2.23828125-4,4.98925781-4c.58056641,0,1.16113281.08496094,1.72509766.25292969.30273438.09179688.62988281.03222656.88330078-.15625s.40234375-.48632812.40234375-.80175781V5.81933594l18-3.59960938v19.78027344Z" style="fill:#30333d; stroke-width:0px;"/></svg>