<svg xmlns="http://www.w3.org/2000/svg" xmlns:xlink="http://www.w3.org/1999/xlink" id="Layer_1" style="width: 200px; height: 200px; transform-origin: 50% 50%; transform: scaleX(1) scaleY(1) rotate(0deg);" version="1.1" viewBox="0 0 128 128" xml:space="preserve" preserveAspectRatio="xMidYMid meet"><style type="text/css">
	.st0{display:none;fill:#D6D5BD;}
	.st1{fill:#FFFFFF;}
	.st2{fill:#E4E8ED;}
	.st3{fill:#444B54;}
	.st4{fill:#FE4365;}
	.st5{fill:#5BF979;}
	.st6{fill:#006475;}
	.st7{fill:#00B1FE;}
	.st8{opacity:0.5;}
	.st9{fill:#FFB480;}
	.st10{fill:#FF8B80;}
	.st11{fill:#70F0FF;}
	.st12{fill:#00BED9;}
	.st13{fill:#FF2A66;}
	.st14{fill:#A3B859;}
	.st15{fill:#64AD50;}
	.st16{fill:#FF5366;}
	.st17{fill:#BBB798;}
	.st18{fill:#79B9AF;}
	.st19{fill:#39BCC5;}
</style><rect class="st0" height="1793" width="1689" x="-713" y="-1473"/><g><g><circle class="st9" cx="64" cy="64" r="60" style="fill:#FFEA4B"/></g><g><path class="st3" d="M37,78.1c-2-0.4-3.9-0.9-5.8-1.4c-5-1.4-9.3,4-6.9,8.6C31.9,99.4,46.9,109,64,109s32.1-9.6,39.6-23.7    c2.5-4.6-1.8-10-6.9-8.6c-1.9,0.5-3.8,1-5.8,1.4l-27,10L37,78.1z"/></g><g><path class="st1" d="M37,78.1v6.5c0,3,2.2,5.5,5.1,5.9c7,1,14.3,1.5,21.9,1.5s14.8-0.5,21.9-1.5c3-0.4,5.1-3,5.1-5.9v-6.5    C82.6,80,73.5,81,64,81S45.4,80,37,78.1z"/></g><g><path class="st1" d="M34.7,25.9c-0.9,0-1.9-0.4-2.5-1.3c-0.9-1.4-0.6-3.2,0.7-4.2c9.1-6.4,19.9-9.8,31-9.8c1.7,0,3,1.3,3,3    s-1.3,3-3,3c-9.9,0-19.5,3-27.6,8.7C35.9,25.7,35.3,25.9,34.7,25.9z"/></g><g><path class="st1" d="M22.3,38.1c-0.6,0-1.2-0.2-1.7-0.6c-1.3-1-1.7-2.8-0.7-4.2c0.5-0.7,1-1.4,1.5-2c1-1.3,2.9-1.5,4.2-0.5    c1.3,1,1.5,2.9,0.5,4.2c-0.5,0.6-0.9,1.2-1.4,1.8C24.2,37.7,23.3,38.1,22.3,38.1z"/></g><g><path class="st3" d="M18.7,59.4c-0.6,0-1.1-0.2-1.6-0.5c-1.4-0.9-1.8-2.8-0.9-4.2c4.7-7.2,12.2-12.1,20.7-13.6    c1.6-0.3,3.2,0.8,3.5,2.4s-0.8,3.2-2.4,3.5c-6.8,1.2-12.9,5.2-16.7,11C20.6,59,19.6,59.4,18.7,59.4z"/></g><g><path class="st3" d="M31.3,66.2c-1.1,0-2.2-0.6-2.7-1.7c-0.7-1.5,0-3.3,1.5-4c7.7-3.5,16.6-3.8,24.4-0.6c1.5,0.6,2.3,2.4,1.6,3.9    c-0.6,1.5-2.4,2.3-3.9,1.6c-6.3-2.6-13.4-2.4-19.6,0.5C32.1,66.1,31.7,66.2,31.3,66.2z"/></g><g><path class="st3" d="M109.3,59.4c-1,0-1.9-0.5-2.5-1.4c-3.8-5.8-9.9-9.8-16.7-11c-1.6-0.3-2.7-1.8-2.4-3.5    c0.3-1.6,1.8-2.7,3.5-2.4c8.4,1.5,16,6.4,20.7,13.6c0.9,1.4,0.5,3.2-0.9,4.2C110.5,59.3,109.9,59.4,109.3,59.4z"/></g><g><path class="st3" d="M96.7,66.2c-0.4,0-0.8-0.1-1.3-0.3c-6.2-2.9-13.3-3-19.6-0.5c-1.5,0.6-3.3-0.1-3.9-1.6    c-0.6-1.5,0.1-3.3,1.6-3.9c7.8-3.2,16.7-3,24.4,0.6c1.5,0.7,2.2,2.5,1.5,4C98.9,65.6,97.8,66.2,96.7,66.2z"/></g><g><path class="st11" d="M18.7,103.1c-0.7,0.3-1.4,0.5-2.2,0.6h0c-7.1,1.3-13.9-3.3-15.2-10.3l0,0c-1-5,1.1-10,5.1-12.9L18.7,103.1z"/></g><g><path class="st12" d="M9.2,78.9c-1.1,0.4-2,1-2.9,1.6C8.7,89,13,96.7,18.6,103.2c5-1.9,8.4-6.7,8.4-12.2l0-19.1L9.2,78.9z"/></g><g><path class="st11" d="M109.3,103.1c0.7,0.3,1.4,0.5,2.2,0.6h0c7.1,1.3,13.9-3.3,15.2-10.3v0c1-5-1.1-10-5.1-12.9L109.3,103.1z"/></g><g><path class="st12" d="M121.7,80.5c-0.9-0.6-1.8-1.2-2.9-1.6l-17.8-7l0,19.1c0,5.5,3.4,10.3,8.4,12.2C115,96.7,119.3,89,121.7,80.5    z"/></g></g></svg>